# xmcd
#
# Track frame offsets:
# 150
# 14515
# 28959
# 40630
# 53312
# 68073
# 92955
# 107908
# 121057
# 137062
# 150892
# 162744
# 173438
# 189890
# 208070
# 227896
# 248942
# 269939
# 289108
# 305409
#
# Disc length: 4302 seconds
#
#
# Revision: 0
# Processed by: cddbd v1.5.2PL0 Copyright (c) Steve Scherf et al.
# Submitted via: FreeRIP 2.951 
#
DISCID=1610cc14
DTITLE=ERASMO CARLOS - NOVO MILENNIUM
DYEAR=2005
DGENRE=JOVEM GUARDA
TTITLE0=ERASMO CARLOS - FESTA DE ARROMBA
TTITLE1=ERASMO CARLOS - MINHA FAMA DE MAU
TTITLE2=ERASMO CARLOS - VEM QUENTE QUE EU ESTOU FERVENDO
TTITLE3=ERASMO CARLOS - GATINHA MANHOSA
TTITLE4=ERASMO CARLOS - SOU UMA CRIANÇA NÃO ENTENDO NADA
TTITLE5=ERASMO CARLOS - SENTADO À BEIRA DO CAMINHO
TTITLE6=ERASMO CARLOS - DE NOITE NA CAMA
TTITLE7=ERASMO CARLOS - GRILOS
TTITLE8=ERASMO CARLOS - CACHAÇA MECÂNICA
TTITLE9=ERASMO CARLOS - O COMILÃO
TTITLE10=ERASMO CARLOS - O CADERNINHO
TTITLE11=ERASMO CARLOS - NEGRO GATO(AO VIVO)
TTITLE12=ERASMO CARLOS - FILHO ÚNICO
TTITLE13=ERASMO CARLOS - PANORAMA ECOLÓGICO
TTITLE14=ERASMO CARLOS - MEU MAR
TTITLE15=ERASMO CARLOS - MULHER(SEXO FRÁGIL)
TTITLE16=ERASMO CARLOS - MINHA SUPERSTAR
TTITLE17=ERASMO CARLOS - PEGA NA MENTIRA
TTITLE18=ERASMO CARLOS - MESMO QUE SEJA EU
TTITLE19=ERASMO CARLOS - MEU EGO
EXTD=geovane.barras@hotmail.com   O MUNDO DA MÚSICA DO PASSADO
EXTT0=
EXTT1=
EXTT2=
EXTT3=
EXTT4=
EXTT5=
EXTT6=
EXTT7=
EXTT8=
EXTT9=
EXTT10=
EXTT11=
EXTT12=
EXTT13=
EXTT14=
EXTT15=
EXTT16=
EXTT17=
EXTT18=
EXTT19=
PLAYORDER=
